<?xml version="1.0" encoding="UTF-8"?>
<!DOCTYPE svg PUBLIC "-//W3C//DTD SVG 1.1//EN" "http://www.w3.org/Graphics/SVG/1.1/DTD/svg11.dtd">
<svg xmlns="http://www.w3.org/2000/svg" version="1.1" width="11px" height="7px" style="shape-rendering:geometricPrecision; text-rendering:geometricPrecision; image-rendering:optimizeQuality; fill-rule:evenodd; clip-rule:evenodd" xmlns:xlink="http://www.w3.org/1999/xlink">
<g><path style="opacity:0.662" fill="#e4be6e" d="M 4.5,-0.5 C 4.83333,-0.5 5.16667,-0.5 5.5,-0.5C 7.14226,0.802988 8.80893,2.13632 10.5,3.5C 10.5,4.16667 10.5,4.83333 10.5,5.5C 9.83333,5.5 9.5,5.83333 9.5,6.5C 9.16667,6.5 8.83333,6.5 8.5,6.5C 6.5,2.5 4.5,2.5 2.5,6.5C 1.83333,6.5 1.16667,6.5 0.5,6.5C 0.5,5.83333 0.166667,5.5 -0.5,5.5C -0.5,5.16667 -0.5,4.83333 -0.5,4.5C 1.5,3.16667 3.16667,1.5 4.5,-0.5 Z"/></g>
</svg>
